<svg xmlns="http://www.w3.org/2000/svg" xmlns:xlink="http://www.w3.org/1999/xlink" contentStyleType="text/css" height="1900px" preserveAspectRatio="none" style="width:908px;height:1900px;background:#FFFFFF;" version="1.1" viewBox="0 0 908 1900" width="908px" zoomAndPan="magnify"><title>WiFi Portal &#8212; End-to-End Access Flow</title><defs/><g><text fill="#000000" font-family="Helvetica" font-size="14" font-weight="bold" lengthAdjust="spacing" textLength="259.0137" x="323.1896" y="33.1318">WiFi Portal &#8212; End-to-End Access Flow</text><ellipse cx="445.1069" cy="57.0986" fill="#7C5CFF" rx="10" ry="10" style="stroke:#222222;stroke-width:1.0;"/><rect fill="none" height="217.0928" style="stroke:#000000;stroke-width:1.5;" width="235.5098" x="327.3521" y="77.5654"/><path d="M552.8618,77.5654 L552.8618,86.6641 L542.8618,96.6641 L327.3521,96.6641 " fill="none" style="stroke:#000000;stroke-width:1.5;"/><text fill="#000000" font-family="Helvetica" font-size="14" lengthAdjust="spacing" textLength="215.5098" x="330.3521" y="91.6973">Step 1 &#183; Discovery &amp; Network Trap</text><rect fill="#EEE6FF" height="33.7988" rx="12.5" ry="12.5" style="stroke:#7C5CFF;stroke-width:0.5;" width="137.3633" x="376.4253" y="113.6641"/><text fill="#1A1A2E" font-family="Helvetica" font-size="12" lengthAdjust="spacing" textLength="117.3633" x="386.4253" y="134.9199">User connects to WiFi</text><rect fill="#EEE6FF" height="47.5977" rx="12.5" ry="12.5" style="stroke:#7C5CFF;stroke-width:0.5;" width="148.7305" x="370.7417" y="167.4629"/><text fill="#1A1A2E" font-family="Helvetica" font-size="12" lengthAdjust="spacing" textLength="128.7305" x="380.7417" y="188.7188">Router (default deny-all)</text><text fill="#1A1A2E" font-family="Helvetica" font-size="12" lengthAdjust="spacing" textLength="100.0371" x="380.7417" y="202.5176">intercepts all traffic</text><rect fill="#EEE6FF" height="47.5977" rx="12.5" ry="12.5" style="stroke:#7C5CFF;stroke-width:0.5;" width="163.4141" x="363.3999" y="235.0605"/><text fill="#1A1A2E" font-family="Helvetica" font-size="12" lengthAdjust="spacing" textLength="143.4141" x="373.3999" y="256.3164">OS launches captive portal</text><text fill="#1A1A2E" font-family="Helvetica" font-size="12" lengthAdjust="spacing" textLength="86.0449" x="373.3999" y="270.1152">&#8594; SvelteKit app</text><rect fill="none" height="230.8916" style="stroke:#000000;stroke-width:1.5;" width="242.7813" x="323.7163" y="304.6582"/><path d="M503.3501,304.6582 L503.3501,313.7568 L493.3501,323.7568 L323.7163,323.7568 " fill="none" style="stroke:#000000;stroke-width:1.5;"/><text fill="#000000" font-family="Helvetica" font-size="14" lengthAdjust="spacing" textLength="169.6338" x="326.7163" y="318.79">Step 2 &#183; Identity &amp; Eligibility</text><rect fill="#EEE6FF" height="47.5977" rx="12.5" ry="12.5" style="stroke:#7C5CFF;stroke-width:0.5;" width="130.7188" x="379.7476" y="340.7568"/><text fill="#1A1A2E" font-family="Helvetica" font-size="12" lengthAdjust="spacing" textLength="102.082" x="389.7476" y="362.0127">Show landing page</text><text fill="#1A1A2E" font-family="Helvetica" font-size="12" lengthAdjust="spacing" textLength="110.7188" x="389.7476" y="375.8115">(service explanation)</text><rect fill="#EEE6FF" height="47.5977" rx="12.5" ry="12.5" style="stroke:#7C5CFF;stroke-width:0.5;" width="107.3809" x="391.4165" y="408.3545"/><text fill="#1A1A2E" font-family="Helvetica" font-size="12" lengthAdjust="spacing" textLength="87.3809" x="401.4165" y="429.6104">Log in / Register</text><text fill="#1A1A2E" font-family="Helvetica" font-size="12" lengthAdjust="spacing" textLength="76.7109" x="401.4165" y="443.4092">via better-auth</text><rect fill="#EEE6FF" height="47.5977" rx="12.5" ry="12.5" style="stroke:#7C5CFF;stroke-width:0.5;" width="222.7813" x="333.7163" y="475.9521"/><text fill="#1A1A2E" font-family="Helvetica" font-size="12" lengthAdjust="spacing" textLength="160.0547" x="343.7163" y="497.208">Query PostgreSQL via Drizzle</text><text fill="#1A1A2E" font-family="Helvetica" font-size="12" lengthAdjust="spacing" textLength="202.7813" x="343.7163" y="511.0068">(credit_balance, last_free_session_at)</text><rect fill="none" height="700.2433" style="stroke:#000000;stroke-width:1.5;" width="886.3928" x="11" y="545.5498"/><path d="M266.1299,545.5498 L266.1299,554.6484 L256.1299,564.6484 L11,564.6484 " fill="none" style="stroke:#000000;stroke-width:1.5;"/><text fill="#000000" font-family="Helvetica" font-size="14" lengthAdjust="spacing" textLength="245.1299" x="14" y="559.6816">Step 3 &#183; Dashboard &amp; Access Selection</text><rect fill="#EEE6FF" height="47.5977" rx="12.5" ry="12.5" style="stroke:#7C5CFF;stroke-width:0.5;" width="187.0625" x="351.5757" y="625.6484"/><text fill="#1A1A2E" font-family="Helvetica" font-size="12" lengthAdjust="spacing" textLength="161.4434" x="361.5757" y="646.9043">Show personalized dashboard</text><text fill="#1A1A2E" font-family="Helvetica" font-size="12" lengthAdjust="spacing" textLength="167.0625" x="361.5757" y="660.7031">(balance + Free Time eligibility)</text><polygon fill="#EEE6FF" points="45.9392,693.2461,139.4768,693.2461,151.4768,705.2461,139.4768,717.2461,45.9392,717.2461,33.9392,705.2461,45.9392,693.2461" style="stroke:#7C5CFF;stroke-width:0.5;"/><text fill="#000000" font-family="Helvetica" font-size="11" lengthAdjust="spacing" textLength="117.3745" x="96.708" y="727.564">Option A &#183; Free Window</text><text fill="#1A1A2E" font-family="Helvetica" font-size="11" lengthAdjust="spacing" textLength="93.5376" x="45.9392" y="709.2395">Free Time eligible?</text><rect fill="#EEE6FF" height="33.7988" rx="12.5" ry="12.5" style="stroke:#7C5CFF;stroke-width:0.5;" width="113.375" x="36.0205" y="749.895"/><text fill="#1A1A2E" font-family="Helvetica" font-size="12" lengthAdjust="spacing" textLength="93.375" x="46.0205" y="771.1509">Start free session</text><rect fill="#EEE6FF" height="33.7988" rx="12.5" ry="12.5" style="stroke:#7C5CFF;stroke-width:0.5;" width="143.416" x="21" y="818.6938"/><text fill="#1A1A2E" font-family="Helvetica" font-size="12" lengthAdjust="spacing" textLength="123.416" x="31" y="839.9497">Log session_end in DB</text><rect fill="#EEE6FF" height="33.7988" rx="12.5" ry="12.5" style="stroke:#7C5CFF;stroke-width:0.5;" width="136.0566" x="24.6797" y="887.4927"/><text fill="#1A1A2E" font-family="Helvetica" font-size="12" lengthAdjust="spacing" textLength="116.0566" x="34.6797" y="908.7485">Display countdown UI</text><polygon fill="#EEE6FF" points="277.8618,693.2461,357.3594,693.2461,369.3594,705.2461,357.3594,717.2461,277.8618,717.2461,265.8618,705.2461,277.8618,693.2461" style="stroke:#7C5CFF;stroke-width:0.5;"/><text fill="#000000" font-family="Helvetica" font-size="11" lengthAdjust="spacing" textLength="84.3853" x="321.6106" y="727.564">Option B &#183; Spend</text><text fill="#1A1A2E" font-family="Helvetica" font-size="11" lengthAdjust="spacing" textLength="79.4976" x="277.8618" y="709.2395">Enough credits?</text><text fill="#000000" font-family="Helvetica" font-size="11" lengthAdjust="spacing" textLength="178.8467" x="369.3594" y="702.915">Option C &#183; Zero balance + Cooldown</text><rect fill="#EEE6FF" height="33.7988" rx="12.5" ry="12.5" style="stroke:#7C5CFF;stroke-width:0.5;" width="175.4141" x="229.9036" y="749.895"/><text fill="#1A1A2E" font-family="Helvetica" font-size="12" lengthAdjust="spacing" textLength="155.4141" x="239.9036" y="771.1509">Select continuous access tier</text><rect fill="#EEE6FF" height="47.5977" rx="12.5" ry="12.5" style="stroke:#7C5CFF;stroke-width:0.5;" width="139.7539" x="247.7336" y="818.6938"/><text fill="#1A1A2E" font-family="Helvetica" font-size="12" lengthAdjust="spacing" textLength="76.6992" x="257.7336" y="839.9497">Deduct credits</text><text fill="#1A1A2E" font-family="Helvetica" font-size="12" lengthAdjust="spacing" textLength="119.7539" x="257.7336" y="853.7485">+ update credit_ledger</text><rect fill="#EEE6FF" height="33.7988" rx="12.5" ry="12.5" style="stroke:#7C5CFF;stroke-width:0.5;" width="125.3984" x="466.3303" y="732.4083"/><text fill="#1A1A2E" font-family="Helvetica" font-size="12" lengthAdjust="spacing" textLength="105.3984" x="476.3303" y="753.6642">Select credit bundle</text><rect fill="#FFE0B2" height="75.1953" rx="12.5" ry="12.5" style="stroke:#7C5CFF;stroke-width:0.5;" width="159.3828" x="449.3381" y="801.2072"/><text fill="#1A1A2E" font-family="Helvetica" font-size="12" lengthAdjust="spacing" textLength="137.3848" x="459.3381" y="822.463">Grant 3-min Grace Period</text><text fill="#1A1A2E" font-family="Helvetica" font-size="12" lengthAdjust="spacing" textLength="138.041" x="459.3381" y="836.2618">(lift firewall, limited speed)</text><text fill="#1A1A2E" font-family="Helvetica" font-size="12" lengthAdjust="spacing" textLength="139.3828" x="459.3381" y="850.0607">rate-limited: 3 attempts/hr,</text><text fill="#1A1A2E" font-family="Helvetica" font-size="12" lengthAdjust="spacing" textLength="128.7422" x="459.3381" y="863.8595">9 non-continuous min/hr</text><path d="M636.7366,922.7269 L636.7366,931.2013 L616.7366,935.2013 L636.7366,939.2013 L636.7366,947.6757 A0,0 0 0 0 636.7366,947.6757 L869.3928,947.6757 A0,0 0 0 0 869.3928,947.6757 L869.3928,932.7269 L859.3928,922.7269 L636.7366,922.7269 A0,0 0 0 0 636.7366,922.7269 " fill="#FEFFDD" style="stroke:#181818;stroke-width:0.5;"/><path d="M859.3928,922.7269 L859.3928,932.7269 L869.3928,932.7269 L859.3928,922.7269 " fill="#FEFFDD" style="stroke:#181818;stroke-width:0.5;"/><text fill="#000000" font-family="Helvetica" font-size="13" font-weight="bold" lengthAdjust="spacing" textLength="211.6563" x="642.7366" y="939.9208">Step 4 &#183; Transaction &amp; Verification</text><rect fill="#EEE6FF" height="47.5977" rx="12.5" ry="12.5" style="stroke:#7C5CFF;stroke-width:0.5;" width="175.4141" x="441.3225" y="911.4025"/><text fill="#1A1A2E" font-family="Helvetica" font-size="12" lengthAdjust="spacing" textLength="155.4141" x="451.3225" y="932.6583">Redirect to payment gateway</text><text fill="#1A1A2E" font-family="Helvetica" font-size="12" lengthAdjust="spacing" textLength="109.3887" x="451.3225" y="946.4572">(PayMongo / Xendit)</text><rect fill="#EEE6FF" height="47.5977" rx="12.5" ry="12.5" style="stroke:#7C5CFF;stroke-width:0.5;" width="207.4238" x="425.3176" y="979.0001"/><text fill="#1A1A2E" font-family="Helvetica" font-size="12" lengthAdjust="spacing" textLength="187.4238" x="435.3176" y="1000.256">Gateway webhook &#8594; SvelteKit API</text><text fill="#1A1A2E" font-family="Helvetica" font-size="12" lengthAdjust="spacing" textLength="94.6992" x="435.3176" y="1014.0548">confirms payment</text><rect fill="#EEE6FF" height="47.5977" rx="12.5" ry="12.5" style="stroke:#7C5CFF;stroke-width:0.5;" width="145.7539" x="456.1526" y="1046.5978"/><text fill="#1A1A2E" font-family="Helvetica" font-size="12" lengthAdjust="spacing" textLength="104.7012" x="466.1526" y="1067.8536">Drizzle adds credits</text><text fill="#1A1A2E" font-family="Helvetica" font-size="12" lengthAdjust="spacing" textLength="125.7539" x="466.1526" y="1081.6525">+ updates credit_ledger</text><rect fill="#EEE6FF" height="47.5977" rx="12.5" ry="12.5" style="stroke:#7C5CFF;stroke-width:0.5;" width="180.084" x="438.9875" y="1114.1954"/><text fill="#1A1A2E" font-family="Helvetica" font-size="12" lengthAdjust="spacing" textLength="160.084" x="448.9875" y="1135.4513">Redirect to /top-up/processing</text><text fill="#1A1A2E" font-family="Helvetica" font-size="12" lengthAdjust="spacing" textLength="114.041" x="448.9875" y="1149.2501">(poll DB until verified)</text><polygon fill="#EEE6FF" points="445.1069,581.6484,457.1069,593.6484,445.1069,605.6484,433.1069,593.6484,445.1069,581.6484" style="stroke:#7C5CFF;stroke-width:0.5;"/><polygon fill="#EEE6FF" points="397.4116,1201.7931,492.8022,1201.7931,504.8022,1213.7931,492.8022,1225.7931,397.4116,1225.7931,385.4116,1213.7931,397.4116,1201.7931" style="stroke:#7C5CFF;stroke-width:0.5;"/><text fill="#000000" font-family="Helvetica" font-size="11" lengthAdjust="spacing" textLength="78.2676" x="449.1069" y="1236.111">no &#183; A/B chosen</text><text fill="#1A1A2E" font-family="Helvetica" font-size="11" lengthAdjust="spacing" textLength="95.3906" x="397.4116" y="1217.7865">Selected Option C?</text><text fill="#000000" font-family="Helvetica" font-size="11" lengthAdjust="spacing" textLength="117.4014" x="504.8022" y="1211.462">yes &#183; back to dashboard</text><rect fill="none" height="591.4834" style="stroke:#000000;stroke-width:1.5;" width="436.5681" x="217.9036" y="1255.7931"/><path d="M454.3645,1255.7931 L454.3645,1264.8917 L444.3645,1274.8917 L217.9036,1274.8917 " fill="none" style="stroke:#000000;stroke-width:1.5;"/><text fill="#000000" font-family="Helvetica" font-size="14" lengthAdjust="spacing" textLength="226.4609" x="220.9036" y="1269.9249">Step 5 &#183; Handoff, Cutoff &amp; Cooldown</text><rect fill="#C8F7C5" height="33.7988" rx="12.5" ry="12.5" style="stroke:#7C5CFF;stroke-width:0.5;" width="221.4277" x="334.3931" y="1291.8917"/><text fill="#1A1A2E" font-family="Helvetica" font-size="12" lengthAdjust="spacing" textLength="201.4277" x="344.3931" y="1313.1476">Release &#8212; redirect to router grant_url</text><rect fill="#EEE6FF" height="47.5977" rx="12.5" ry="12.5" style="stroke:#7C5CFF;stroke-width:0.5;" width="177.3828" x="356.4155" y="1345.6906"/><text fill="#1A1A2E" font-family="Helvetica" font-size="12" lengthAdjust="spacing" textLength="157.3828" x="366.4155" y="1366.9464">Router drops firewall for MAC</text><text fill="#1A1A2E" font-family="Helvetica" font-size="12" lengthAdjust="spacing" textLength="119.4141" x="366.4155" y="1380.7452">&#8594; 100% open internet</text><rect fill="#EEE6FF" height="47.5977" rx="12.5" ry="12.5" style="stroke:#7C5CFF;stroke-width:0.5;" width="172.0684" x="359.0728" y="1413.2882"/><text fill="#1A1A2E" font-family="Helvetica" font-size="12" lengthAdjust="spacing" textLength="152.0684" x="369.0728" y="1434.5441">Cron job / router timeout API</text><text fill="#1A1A2E" font-family="Helvetica" font-size="12" lengthAdjust="spacing" textLength="110.0508" x="369.0728" y="1448.3429">monitors the session</text><polygon fill="#EEE6FF" points="353.0947,1480.8859,537.1191,1480.8859,549.1191,1492.8859,537.1191,1504.8859,353.0947,1504.8859,341.0947,1492.8859,353.0947,1480.8859" style="stroke:#7C5CFF;stroke-width:0.5;"/><text fill="#1A1A2E" font-family="Helvetica" font-size="11" lengthAdjust="spacing" textLength="184.0244" x="353.0947" y="1496.8793">Free Window / Grace Period expired?</text><text fill="#000000" font-family="Helvetica" font-size="11" lengthAdjust="spacing" textLength="17.1177" x="323.9771" y="1490.5548">yes</text><text fill="#000000" font-family="Helvetica" font-size="11" lengthAdjust="spacing" textLength="47.6792" x="549.1191" y="1490.5548">still active</text><rect fill="#EEE6FF" height="47.5977" rx="12.5" ry="12.5" style="stroke:#7C5CFF;stroke-width:0.5;" width="163.4023" x="249.3936" y="1514.8859"/><text fill="#1A1A2E" font-family="Helvetica" font-size="12" lengthAdjust="spacing" textLength="143.4023" x="259.3936" y="1536.1417">Backend commands router</text><text fill="#1A1A2E" font-family="Helvetica" font-size="12" lengthAdjust="spacing" textLength="120.041" x="259.3936" y="1549.9406">to revoke MAC access</text><rect fill="#EEE6FF" height="33.7988" rx="12.5" ry="12.5" style="stroke:#7C5CFF;stroke-width:0.5;" width="127.3906" x="267.3994" y="1582.4835"/><text fill="#1A1A2E" font-family="Helvetica" font-size="12" lengthAdjust="spacing" textLength="107.3906" x="277.3994" y="1603.7394">Internet cut instantly</text><rect fill="#EEE6FF" height="33.7988" rx="12.5" ry="12.5" style="stroke:#7C5CFF;stroke-width:0.5;" width="186.7402" x="237.7246" y="1636.2823"/><text fill="#1A1A2E" font-family="Helvetica" font-size="12" lengthAdjust="spacing" textLength="166.7402" x="247.7246" y="1657.5382">Router intercepts user &#8594; portal</text><rect fill="#FFCDD2" height="61.3965" rx="12.5" ry="12.5" style="stroke:#7C5CFF;stroke-width:0.5;" width="182.0762" x="240.0566" y="1690.0812"/><text fill="#1A1A2E" font-family="Helvetica" font-size="12" lengthAdjust="spacing" textLength="143.6426" x="250.0566" y="1711.337">Display "Free time expired.</text><text fill="#1A1A2E" font-family="Helvetica" font-size="12" lengthAdjust="spacing" textLength="162.0762" x="250.0566" y="1725.1359">Wait 12h for next free session,</text><text fill="#1A1A2E" font-family="Helvetica" font-size="12" lengthAdjust="spacing" textLength="145.6699" x="250.0566" y="1738.9347">or Top-Up now to continue"</text><rect fill="#EEE6FF" height="33.7988" rx="12.5" ry="12.5" style="stroke:#7C5CFF;stroke-width:0.5;" width="134.7324" x="263.7285" y="1771.4777"/><text fill="#1A1A2E" font-family="Helvetica" font-size="12" lengthAdjust="spacing" textLength="114.7324" x="273.7285" y="1792.7335">Enter Cooldown state</text><rect fill="#EEE6FF" height="47.5977" rx="12.5" ry="12.5" style="stroke:#7C5CFF;stroke-width:0.5;" width="150.7051" x="483.7666" y="1514.8859"/><text fill="#1A1A2E" font-family="Helvetica" font-size="12" lengthAdjust="spacing" textLength="112.0488" x="493.7666" y="1536.1417">User keeps browsing</text><text fill="#1A1A2E" font-family="Helvetica" font-size="12" lengthAdjust="spacing" textLength="130.7051" x="493.7666" y="1549.9406">(may top-up seamlessly)</text><polygon fill="#EEE6FF" points="445.1069,1811.2765,457.1069,1823.2765,445.1069,1835.2765,433.1069,1823.2765,445.1069,1811.2765" style="stroke:#7C5CFF;stroke-width:0.5;"/><ellipse cx="445.1069" cy="1878.2765" fill="none" rx="11" ry="11" style="stroke:#222222;stroke-width:1.0;"/><ellipse cx="445.1069" cy="1878.2765" fill="#222222" rx="6" ry="6" style="stroke:#222222;stroke-width:1.0;"/><line style="stroke:#181818;stroke-width:1.0;" x1="445.1069" x2="445.1069" y1="147.4629" y2="167.4629"/><polygon fill="#181818" points="441.1069,157.4629,445.1069,167.4629,449.1069,157.4629,445.1069,161.4629" style="stroke:#181818;stroke-width:1.0;"/><line style="stroke:#181818;stroke-width:1.0;" x1="445.1069" x2="445.1069" y1="215.0605" y2="235.0605"/><polygon fill="#181818" points="441.1069,225.0605,445.1069,235.0605,449.1069,225.0605,445.1069,229.0605" style="stroke:#181818;stroke-width:1.0;"/><line style="stroke:#181818;stroke-width:1.0;" x1="445.1069" x2="445.1069" y1="67.0986" y2="113.6641"/><polygon fill="#181818" points="441.1069,103.6641,445.1069,113.6641,449.1069,103.6641,445.1069,107.6641" style="stroke:#181818;stroke-width:1.0;"/><line style="stroke:#181818;stroke-width:1.0;" x1="445.1069" x2="445.1069" y1="388.3545" y2="408.3545"/><polygon fill="#181818" points="441.1069,398.3545,445.1069,408.3545,449.1069,398.3545,445.1069,402.3545" style="stroke:#181818;stroke-width:1.0;"/><line style="stroke:#181818;stroke-width:1.0;" x1="445.1069" x2="445.1069" y1="455.9521" y2="475.9521"/><polygon fill="#181818" points="441.1069,465.9521,445.1069,475.9521,449.1069,465.9521,445.1069,469.9521" style="stroke:#181818;stroke-width:1.0;"/><line style="stroke:#181818;stroke-width:1.0;" x1="445.1069" x2="445.1069" y1="282.6582" y2="340.7568"/><polygon fill="#181818" points="441.1069,330.7568,445.1069,340.7568,449.1069,330.7568,445.1069,334.7568" style="stroke:#181818;stroke-width:1.0;"/><line style="stroke:#181818;stroke-width:1.0;" x1="92.708" x2="92.708" y1="783.6938" y2="818.6938"/><polygon fill="#181818" points="88.708,808.6938,92.708,818.6938,96.708,808.6938,92.708,812.6938" style="stroke:#181818;stroke-width:1.0;"/><line style="stroke:#181818;stroke-width:1.0;" x1="92.708" x2="92.708" y1="852.4927" y2="887.4927"/><polygon fill="#181818" points="88.708,877.4927,92.708,887.4927,96.708,877.4927,92.708,881.4927" style="stroke:#181818;stroke-width:1.0;"/><line style="stroke:#181818;stroke-width:1.0;" x1="317.6106" x2="317.6106" y1="783.6938" y2="818.6938"/><polygon fill="#181818" points="313.6106,808.6938,317.6106,818.6938,321.6106,808.6938,317.6106,812.6938" style="stroke:#181818;stroke-width:1.0;"/><line style="stroke:#181818;stroke-width:1.0;" x1="529.0295" x2="529.0295" y1="766.2072" y2="801.2072"/><polygon fill="#181818" points="525.0295,791.2072,529.0295,801.2072,533.0295,791.2072,529.0295,795.2072" style="stroke:#181818;stroke-width:1.0;"/><line style="stroke:#181818;stroke-width:1.0;" x1="529.0295" x2="529.0295" y1="876.4025" y2="911.4025"/><polygon fill="#181818" points="525.0295,901.4025,529.0295,911.4025,533.0295,901.4025,529.0295,905.4025" style="stroke:#181818;stroke-width:1.0;"/><line style="stroke:#181818;stroke-width:1.0;" x1="529.0295" x2="529.0295" y1="959.0001" y2="979.0001"/><polygon fill="#181818" points="525.0295,969.0001,529.0295,979.0001,533.0295,969.0001,529.0295,973.0001" style="stroke:#181818;stroke-width:1.0;"/><line style="stroke:#181818;stroke-width:1.0;" x1="529.0295" x2="529.0295" y1="1026.5978" y2="1046.5978"/><polygon fill="#181818" points="525.0295,1036.5978,529.0295,1046.5978,533.0295,1036.5978,529.0295,1040.5978" style="stroke:#181818;stroke-width:1.0;"/><line style="stroke:#181818;stroke-width:1.0;" x1="529.0295" x2="529.0295" y1="1094.1954" y2="1114.1954"/><polygon fill="#181818" points="525.0295,1104.1954,529.0295,1114.1954,533.0295,1104.1954,529.0295,1108.1954" style="stroke:#181818;stroke-width:1.0;"/><line style="stroke:#181818;stroke-width:1.0;" x1="92.708" x2="92.708" y1="717.2461" y2="749.895"/><polygon fill="#181818" points="88.708,739.895,92.708,749.895,96.708,739.895,92.708,743.895" style="stroke:#181818;stroke-width:1.0;"/><line style="stroke:#181818;stroke-width:1.0;" x1="92.708" x2="92.708" y1="921.2915" y2="1181.7931"/><polygon fill="#181818" points="88.708,1171.7931,92.708,1181.7931,96.708,1171.7931,92.708,1175.7931" style="stroke:#181818;stroke-width:1.0;"/><line style="stroke:#181818;stroke-width:1.0;" x1="317.6106" x2="317.6106" y1="717.2461" y2="749.895"/><polygon fill="#181818" points="313.6106,739.895,317.6106,749.895,321.6106,739.895,317.6106,743.895" style="stroke:#181818;stroke-width:1.0;"/><line style="stroke:#181818;stroke-width:1.0;" x1="317.6106" x2="317.6106" y1="866.2915" y2="1181.7931"/><polygon fill="#181818" points="313.6106,1171.7931,317.6106,1181.7931,321.6106,1171.7931,317.6106,1175.7931" style="stroke:#181818;stroke-width:1.0;"/><line style="stroke:#181818;stroke-width:1.0;" x1="151.4768" x2="265.8618" y1="705.2461" y2="705.2461"/><polygon fill="#181818" points="255.8618,701.2461,265.8618,705.2461,255.8618,709.2461,259.8618,705.2461" style="stroke:#181818;stroke-width:1.0;"/><line style="stroke:#181818;stroke-width:1.0;" x1="445.1069" x2="445.1069" y1="673.2461" y2="678.2461"/><line style="stroke:#181818;stroke-width:1.0;" x1="445.1069" x2="92.708" y1="678.2461" y2="678.2461"/><line style="stroke:#181818;stroke-width:1.0;" x1="92.708" x2="92.708" y1="678.2461" y2="693.2461"/><polygon fill="#181818" points="88.708,683.2461,92.708,693.2461,96.708,683.2461,92.708,687.2461" style="stroke:#181818;stroke-width:1.0;"/><line style="stroke:#181818;stroke-width:1.0;" x1="369.3594" x2="529.0295" y1="705.2461" y2="705.2461"/><line style="stroke:#181818;stroke-width:1.0;" x1="529.0295" x2="529.0295" y1="705.2461" y2="732.4083"/><polygon fill="#181818" points="525.0295,722.4083,529.0295,732.4083,533.0295,722.4083,529.0295,726.4083" style="stroke:#181818;stroke-width:1.0;"/><line style="stroke:#181818;stroke-width:1.0;" x1="529.0295" x2="529.0295" y1="1161.7931" y2="1181.7931"/><polygon fill="#181818" points="525.0295,1171.7931,529.0295,1181.7931,533.0295,1171.7931,529.0295,1175.7931" style="stroke:#181818;stroke-width:1.0;"/><line style="stroke:#181818;stroke-width:1.0;" x1="92.708" x2="529.0295" y1="1181.7931" y2="1181.7931"/><line style="stroke:#181818;stroke-width:1.0;" x1="445.1069" x2="445.1069" y1="605.6484" y2="625.6484"/><polygon fill="#181818" points="441.1069,615.6484,445.1069,625.6484,449.1069,615.6484,445.1069,619.6484" style="stroke:#181818;stroke-width:1.0;"/><line style="stroke:#181818;stroke-width:1.0;" x1="504.8022" x2="881.3928" y1="1213.7931" y2="1213.7931"/><polygon fill="#181818" points="877.3928,938.3019,881.3928,928.3019,885.3928,938.3019,881.3928,934.3019" style="stroke:#181818;stroke-width:1.0;"/><line style="stroke:#181818;stroke-width:1.0;" x1="881.3928" x2="881.3928" y1="593.6484" y2="1213.7931"/><line style="stroke:#181818;stroke-width:1.0;" x1="881.3928" x2="457.1069" y1="593.6484" y2="593.6484"/><polygon fill="#181818" points="467.1069,589.6484,457.1069,593.6484,467.1069,597.6484,463.1069,593.6484" style="stroke:#181818;stroke-width:1.0;"/><line style="stroke:#181818;stroke-width:1.0;" x1="445.1069" x2="445.1069" y1="1181.7931" y2="1201.7931"/><polygon fill="#181818" points="441.1069,1191.7931,445.1069,1201.7931,449.1069,1191.7931,445.1069,1195.7931" style="stroke:#181818;stroke-width:1.0;"/><line style="stroke:#181818;stroke-width:1.0;" x1="445.1069" x2="445.1069" y1="523.5498" y2="581.6484"/><polygon fill="#181818" points="441.1069,571.6484,445.1069,581.6484,449.1069,571.6484,445.1069,575.6484" style="stroke:#181818;stroke-width:1.0;"/><line style="stroke:#181818;stroke-width:1.0;" x1="445.1069" x2="445.1069" y1="1325.6906" y2="1345.6906"/><polygon fill="#181818" points="441.1069,1335.6906,445.1069,1345.6906,449.1069,1335.6906,445.1069,1339.6906" style="stroke:#181818;stroke-width:1.0;"/><line style="stroke:#181818;stroke-width:1.0;" x1="445.1069" x2="445.1069" y1="1393.2882" y2="1413.2882"/><polygon fill="#181818" points="441.1069,1403.2882,445.1069,1413.2882,449.1069,1403.2882,445.1069,1407.2882" style="stroke:#181818;stroke-width:1.0;"/><line style="stroke:#181818;stroke-width:1.0;" x1="331.0947" x2="331.0947" y1="1562.4835" y2="1582.4835"/><polygon fill="#181818" points="327.0947,1572.4835,331.0947,1582.4835,335.0947,1572.4835,331.0947,1576.4835" style="stroke:#181818;stroke-width:1.0;"/><line style="stroke:#181818;stroke-width:1.0;" x1="331.0947" x2="331.0947" y1="1616.2823" y2="1636.2823"/><polygon fill="#181818" points="327.0947,1626.2823,331.0947,1636.2823,335.0947,1626.2823,331.0947,1630.2823" style="stroke:#181818;stroke-width:1.0;"/><line style="stroke:#181818;stroke-width:1.0;" x1="331.0947" x2="331.0947" y1="1670.0812" y2="1690.0812"/><polygon fill="#181818" points="327.0947,1680.0812,331.0947,1690.0812,335.0947,1680.0812,331.0947,1684.0812" style="stroke:#181818;stroke-width:1.0;"/><line style="stroke:#181818;stroke-width:1.0;" x1="331.0947" x2="331.0947" y1="1751.4777" y2="1771.4777"/><polygon fill="#181818" points="327.0947,1761.4777,331.0947,1771.4777,335.0947,1761.4777,331.0947,1765.4777" style="stroke:#181818;stroke-width:1.0;"/><line style="stroke:#181818;stroke-width:1.0;" x1="341.0947" x2="331.0947" y1="1492.8859" y2="1492.8859"/><line style="stroke:#181818;stroke-width:1.0;" x1="331.0947" x2="331.0947" y1="1492.8859" y2="1514.8859"/><polygon fill="#181818" points="327.0947,1504.8859,331.0947,1514.8859,335.0947,1504.8859,331.0947,1508.8859" style="stroke:#181818;stroke-width:1.0;"/><line style="stroke:#181818;stroke-width:1.0;" x1="549.1191" x2="559.1191" y1="1492.8859" y2="1492.8859"/><line style="stroke:#181818;stroke-width:1.0;" x1="559.1191" x2="559.1191" y1="1492.8859" y2="1514.8859"/><polygon fill="#181818" points="555.1191,1504.8859,559.1191,1514.8859,563.1191,1504.8859,559.1191,1508.8859" style="stroke:#181818;stroke-width:1.0;"/><line style="stroke:#181818;stroke-width:1.0;" x1="331.0947" x2="331.0947" y1="1805.2765" y2="1823.2765"/><line style="stroke:#181818;stroke-width:1.0;" x1="331.0947" x2="433.1069" y1="1823.2765" y2="1823.2765"/><polygon fill="#181818" points="423.1069,1819.2765,433.1069,1823.2765,423.1069,1827.2765,427.1069,1823.2765" style="stroke:#181818;stroke-width:1.0;"/><line style="stroke:#181818;stroke-width:1.0;" x1="559.1191" x2="559.1191" y1="1562.4835" y2="1823.2765"/><line style="stroke:#181818;stroke-width:1.0;" x1="559.1191" x2="457.1069" y1="1823.2765" y2="1823.2765"/><polygon fill="#181818" points="467.1069,1819.2765,457.1069,1823.2765,467.1069,1827.2765,463.1069,1823.2765" style="stroke:#181818;stroke-width:1.0;"/><line style="stroke:#181818;stroke-width:1.0;" x1="445.1069" x2="445.1069" y1="1460.8859" y2="1480.8859"/><polygon fill="#181818" points="441.1069,1470.8859,445.1069,1480.8859,449.1069,1470.8859,445.1069,1474.8859" style="stroke:#181818;stroke-width:1.0;"/><line style="stroke:#181818;stroke-width:1.0;" x1="445.1069" x2="445.1069" y1="1225.7931" y2="1291.8917"/><polygon fill="#181818" points="441.1069,1281.8917,445.1069,1291.8917,449.1069,1281.8917,445.1069,1285.8917" style="stroke:#181818;stroke-width:1.0;"/><line style="stroke:#181818;stroke-width:1.0;" x1="445.1069" x2="445.1069" y1="1835.2765" y2="1867.2765"/><polygon fill="#181818" points="441.1069,1857.2765,445.1069,1867.2765,449.1069,1857.2765,445.1069,1861.2765" style="stroke:#181818;stroke-width:1.0;"/><!--SRC=[TLRRRXit47tNLqmTD92SgBwawKLvA2HPJepcuaHsKnG236ftjCkOIn8aLufI1EXJFw3el_Izdv8lwI5t9IkEwnV977BcpCmvC_hAEb5KWfHOcpgGhpW8BJh-McehdAXeBhBhmfbQvsEZZADxf-blvqRE2r6hS6fqU2agfcUibXnajkl5bo8tAwaBMWZbUSSYiY2NCgpfzmxHw7QmoMJo7OB1ObpEhZtzVlnud4vZpFRiQ7WqF9xWx4IAokZy_rrjBjpfiJNUvNWQX0ktxq-s_hT78t7BwyTEa44nlPMdaiwD2qBHfp_-Zc_xmVJnGSCiO-_fL9bLf-DZe4u7zS4xQJJjJGDREg9__m4-dvabkpNTfvSSLiPTquKJTY_LRt3fsL5cjEOiU0ecnNmIBM_GNjYwRRVGDRtk2wLwCoqrB1bRlC011ISM2vcbLw-cO4Qjiv8zPSAYLKmsPJ3Jd_xyYwPBLe5_be64jK-GwHUeZoFgCqGBiSdtQQ9a8UTIuRyMyxGqAqJHUQI75GNFT1TfB6N6nEyjB2BwwoL0pqr1KjC1lU52Uk2UwQKKDEU0xtrHXp9TUrt74fqR7mh7qzVFALuwSVB31nNTPuvp6Qxc0iupVeZeFbmj7FELHniGx4g4tftfF4fD4BwS6-5ovDDsRieA9SUz9Yd7baN0bqr-bfqtMYZvWNFAD-y1fSL03-WKyUb2Ga5yKwEKDP5SKFUsNV5FFGebQ-g-iWdYC89BrzvA3Rtrqji88JAAOeBK9lXaOue5tIJDO2AAUpBQMa4tD60DIjKwmAEcoxF6o91nH3NHfYvAQYhgRoCQHKHJ2yStM5Ab8ac3rBMfGRgcX46okmdCUHrlDMvd-W7LDXU1svChnNcnkHwXR2EEOyJVs1cwgUpO61N1Vu4X-Q8vXeJYJMWCkCdXw7Zmr0aTw56_GaNm7OxEsKaJUwRa0jMKZbVG2zWZAndGLc-PS-Z90MU_FHo0CGBShA2kWz8zdEaVIHlTtqaV0M3PPlu6c5n41_LQiQwW72hWSINM27qkrY-CBWmKy2kgAaDlyr0RLCV9eWm3sjzFPFqsrWBJGNkHk0cw_e8S8EwagFtzJSodZNzQyRmqvfe-b_Rm_6oc0HWPLtw3wQPJZQf8vBd_ib_-heRTol8W6DklxO5r9X81Om29MeDHT38Yy4ugMYROg6xRSMI-sCgCLgK4W6xJLJHYGmMmKNhghe42XOYRB8RRggyNQqPTRQ9rU32Yh3IUmP8xTFyutdc68MKMYuSqhWC-KSuDinhLtnl_S8gPZ-GK2t0o3dctawXhPd0HcNLLExKxc7DdhD-IYXRO7o-6usRA7XqUVaq6Ag8qgZMdwW_63l3UcJcuq7eEc0vnZQUEOO_9O9oFYjoL_NQMD4C2htVf7KSkGEHR9QDwZMu6SQN64P6Pga8bV1jrfcDgl3JN726tScuQDJXh0LC6M59ZjUcWrgsnJNrd_zHnVyMKcoNJt8CYnoSdnzjXj9VGXpG96x3VpFHR0QOU7PUfSfhVVpxke3iSNu1dbnPTNyLkj1BalHRD9CBOTfG0DQIXq8mN3nggvjSAj_L8o_QQ6NsRExDgYLi1OKDe11UL0W3LZF66jH_ZWZUsyny0]--></g></svg>