<svg xmlns="http://www.w3.org/2000/svg" xmlns:xlink="http://www.w3.org/1999/xlink" contentStyleType="text/css" height="400px" preserveAspectRatio="none" style="width:1131px;height:400px;background:#FFFFFF;" version="1.1" viewBox="0 0 1131 400" width="1131px" zoomAndPan="magnify"><title>WiFi Portal &#8212; Use Case Diagram</title><defs/><g><text fill="#000000" font-family="sans-serif" font-size="14" font-weight="bold" lengthAdjust="spacing" textLength="217.8408" x="453.0796" y="23.1318">WiFi Portal &#8212; Use Case Diagram</text><!--cluster WiFi Portal System--><g id="cluster_WiFi Portal System"><rect fill="none" height="241" rx="2.5" ry="2.5" style="stroke:#181818;stroke-width:1.0;" width="1021" x="104" y="49.0986"/><text fill="#000000" font-family="sans-serif" font-size="14" font-weight="bold" lengthAdjust="spacing" textLength="126.8066" x="551.0967" y="64.2305">WiFi Portal System</text></g><!--entity Guest--><g id="elem_Guest"><ellipse cx="40.6138" cy="155.0986" fill="#F1F1F1" rx="16" ry="16" style="stroke:#181818;stroke-width:0.5;"/><path d="M40.6138,175.0986 C44.6138,175.0986 47.6138,175.0986 51.6138,171.0986 C59.6138,171.0986 67.6138,179.0986 67.6138,187.0986 L67.6138,191.0986 C67.6138,195.0986 63.6138,199.0986 59.6138,199.0986 L21.6138,199.0986 C17.6138,199.0986 13.6138,195.0986 13.6138,191.0986 L13.6138,187.0986 C13.6138,179.0986 21.6138,171.0986 29.6138,171.0986 C33.6138,175.0986 36.6138,175.0986 40.6138,175.0986 " fill="#F1F1F1" style="stroke:#181818;stroke-width:0.5;"/><text fill="#000000" font-family="sans-serif" font-size="14" lengthAdjust="spacing" textLength="69.2275" x="6" y="212.7305">WiFi Guest</text></g><!--entity Router--><g id="elem_Router"><ellipse cx="1026.6274" cy="315.0986" fill="#F1F1F1" rx="16" ry="16" style="stroke:#181818;stroke-width:0.5;"/><path d="M1026.6274,335.0986 C1030.6274,335.0986 1033.6274,335.0986 1037.6274,331.0986 C1045.6274,331.0986 1053.6274,339.0986 1053.6274,347.0986 L1053.6274,351.0986 C1053.6274,355.0986 1049.6274,359.0986 1045.6274,359.0986 L1007.6274,359.0986 C1003.6274,359.0986 999.6274,355.0986 999.6274,351.0986 L999.6274,347.0986 C999.6274,339.0986 1007.6274,331.0986 1015.6274,331.0986 C1019.6274,335.0986 1022.6274,335.0986 1026.6274,335.0986 " fill="#F1F1F1" style="stroke:#181818;stroke-width:0.5;"/><text fill="#000000" font-family="sans-serif" font-size="14" lengthAdjust="spacing" textLength="97.2549" x="978" y="372.7305">Network Router</text></g><!--entity Gateway--><g id="elem_Gateway"><ellipse cx="756.6929" cy="334.0986" fill="#F1F1F1" rx="16" ry="16" style="stroke:#181818;stroke-width:0.5;"/><path d="M756.6929,354.0986 C760.6929,354.0986 763.6929,354.0986 767.6929,350.0986 C775.6929,350.0986 783.6929,358.0986 783.6929,366.0986 L783.6929,370.0986 C783.6929,374.0986 779.6929,378.0986 775.6929,378.0986 L737.6929,378.0986 C733.6929,378.0986 729.6929,374.0986 729.6929,370.0986 L729.6929,366.0986 C729.6929,358.0986 737.6929,350.0986 745.6929,350.0986 C749.6929,354.0986 752.6929,354.0986 756.6929,354.0986 " fill="#F1F1F1" style="stroke:#181818;stroke-width:0.5;"/><text fill="#000000" font-family="sans-serif" font-size="14" lengthAdjust="spacing" textLength="114.3857" x="699.5" y="391.7305">Payment Gateway</text></g><g id="elem_UC_Auth"><ellipse cx="199.2521" cy="95.1491" fill="#F1F1F1" rx="83.2521" ry="19.0504" style="stroke:#181818;stroke-width:0.5;"/><text fill="#000000" font-family="sans-serif" font-size="14" lengthAdjust="spacing" textLength="126.8613" x="135.8215" y="98.2316">Authenticate Identity</text></g><g id="elem_UC_Dash"><ellipse cx="199.5726" cy="149.1131" fill="#F1F1F1" rx="73.0726" ry="17.0145" style="stroke:#181818;stroke-width:0.5;"/><text fill="#000000" font-family="sans-serif" font-size="14" lengthAdjust="spacing" textLength="102.7236" x="148.2108" y="152.1957">View Dashboard</text></g><g id="elem_UC_Query"><ellipse cx="479.6936" cy="108.8841" fill="#F1F1F1" rx="95.1936" ry="25.7854" style="stroke:#181818;stroke-width:0.5;"/><text fill="#000000" font-family="sans-serif" font-size="14" lengthAdjust="spacing" textLength="118.2754" x="417.9274" y="104.5669">Query PostgreSQL</text><text fill="#000000" font-family="sans-serif" font-size="14" lengthAdjust="spacing" textLength="64.5654" x="444.7824" y="120.6655">via Drizzle</text></g><g id="elem_UC_Spend"><ellipse cx="199.315" cy="203.9616" fill="#F1F1F1" rx="87.315" ry="19.863" style="stroke:#181818;stroke-width:0.5;"/><text fill="#000000" font-family="sans-serif" font-size="14" lengthAdjust="spacing" textLength="136.1787" x="131.2256" y="207.0442">Spend Credits on Tier</text></g><g id="elem_UC_Deduct"><ellipse cx="479.4583" cy="185.8655" fill="#F1F1F1" rx="76.9583" ry="25.7669" style="stroke:#181818;stroke-width:0.5;"/><text fill="#000000" font-family="sans-serif" font-size="14" lengthAdjust="spacing" textLength="92.5928" x="433.1619" y="180.8987">Deduct Credits</text><text fill="#000000" font-family="sans-serif" font-size="14" lengthAdjust="spacing" textLength="90.2822" x="434.3171" y="196.9974">&amp; Log Session</text></g><g id="elem_UC_Grant"><ellipse cx="756.6632" cy="185.8655" fill="#F1F1F1" rx="84.6632" ry="25.7669" style="stroke:#181818;stroke-width:0.5;"/><text fill="#000000" font-family="sans-serif" font-size="14" lengthAdjust="spacing" textLength="103.4893" x="704.9186" y="180.8987">Trigger grant_url</text><text fill="#000000" font-family="sans-serif" font-size="14" lengthAdjust="spacing" textLength="52.1309" x="730.5978" y="196.9974">Redirect</text></g><g id="elem_UC_TopUp"><ellipse cx="199.4728" cy="261.8932" fill="#F1F1F1" rx="86.9728" ry="19.7946" style="stroke:#181818;stroke-width:0.5;"/><text fill="#000000" font-family="sans-serif" font-size="14" lengthAdjust="spacing" textLength="135.3994" x="131.7731" y="264.9757">Top-Up Credit Bundle</text></g><g id="elem_UC_Checkout"><ellipse cx="479.4564" cy="255.8955" fill="#F1F1F1" rx="97.4564" ry="25.7968" style="stroke:#181818;stroke-width:0.5;"/><text fill="#000000" font-family="sans-serif" font-size="14" lengthAdjust="spacing" textLength="121.4063" x="415.7533" y="251.6621">Generate Checkout</text><text fill="#000000" font-family="sans-serif" font-size="14" lengthAdjust="spacing" textLength="49.8066" x="451.5531" y="267.7607">Session</text></g><g id="elem_UC_Verify"><ellipse cx="756.3618" cy="255.8655" fill="#F1F1F1" rx="81.3618" ry="25.7669" style="stroke:#181818;stroke-width:0.5;"/><text fill="#000000" font-family="sans-serif" font-size="14" lengthAdjust="spacing" textLength="98.8203" x="706.9516" y="250.8987">Verify Webhook</text><text fill="#000000" font-family="sans-serif" font-size="14" lengthAdjust="spacing" textLength="50.5928" x="731.0654" y="266.9974">Payload</text></g><g id="elem_UC_AddCredits"><ellipse cx="1026.4126" cy="256.0811" fill="#F1F1F1" rx="90.4126" ry="20.4825" style="stroke:#181818;stroke-width:0.5;"/><text fill="#000000" font-family="sans-serif" font-size="14" lengthAdjust="spacing" textLength="143.1924" x="954.8164" y="259.1637">Add Credits to Balance</text></g><polygon fill="#181818" points="123.0268,114.2492,113.1854,113.8664,118.3823,116.1008,116.1479,121.2977,123.0268,114.2492" style="stroke:#181818;stroke-width:1.0;"/><path d="M75.2313,143.4261 C84.0561,135.9387 93.9343,128.6016 104,123.0986 C110.0056,119.8153 110.8681,119.0964 117.4534,116.4711 " fill="none" style="stroke:#181818;stroke-width:1.0;"/><polygon fill="#181818" points="126.4769,161.9435,116.9144,159.5858,121.5546,162.8214,118.319,167.4615,126.4769,161.9435" style="stroke:#181818;stroke-width:1.0;"/><path d="M75.1804,171.0919 C90.2273,168.4084 102.6714,166.1891 120.5701,162.997 " fill="none" style="stroke:#181818;stroke-width:1.0;"/><polygon fill="#181818" points="111.9829,189.2199,103.791,183.7524,107.0552,188.3725,102.4352,191.6366,111.9829,189.2199" style="stroke:#181818;stroke-width:1.0;"/><path d="M75.1804,182.8908 C86.1728,184.7812 93.0152,185.9579 106.0697,188.203 " fill="none" style="stroke:#181818;stroke-width:1.0;"/><polygon fill="#181818" points="122.473,242.0082,115.6935,234.8641,117.8549,240.0918,112.6272,242.2531,122.473,242.0082" style="stroke:#181818;stroke-width:1.0;"/><path d="M75.1143,211.9821 C83.9427,219.748 93.8518,227.3663 104,233.0986 C109.8275,236.3904 110.5309,237.0524 116.9312,239.7085 " fill="none" style="stroke:#181818;stroke-width:1.0;"/><polygon fill="#181818" points="384.4561,104.3626,375.6687,99.915,379.4624,104.1111,375.2663,107.9049,384.4561,104.3626" style="stroke:#181818;stroke-width:1.0;"/><path d="M283.1565,99.2612 C315.0069,100.8652 345.6159,102.4066 378.4637,104.0608 " fill="none" style="stroke:#181818;stroke-width:1.0;stroke-dasharray:7.0,7.0;"/><text fill="#000000" font-family="sans-serif" font-size="13" lengthAdjust="spacing" textLength="55.6563" x="307" y="97.2925">&#171;include&#187;</text><polygon fill="#181818" points="384.2751,122.6562,374.7972,119.9787,379.3261,123.3683,375.9365,127.8972,384.2751,122.6562" style="stroke:#181818;stroke-width:1.0;"/><path d="M272.8155,138.6935 C306.8415,133.7977 341.9153,128.7511 378.3362,123.5107 " fill="none" style="stroke:#181818;stroke-width:1.0;stroke-dasharray:7.0,7.0;"/><text fill="#000000" font-family="sans-serif" font-size="13" lengthAdjust="spacing" textLength="55.6563" x="307" y="123.2925">&#171;include&#187;</text><polygon fill="#181818" points="402.2057,191.0386,392.966,187.6284,397.2161,191.3616,393.4829,195.6117,402.2057,191.0386" style="stroke:#181818;stroke-width:1.0;"/><path d="M287.3174,198.4774 C324.1188,196.0945 360.6416,193.7298 396.2182,191.4262 " fill="none" style="stroke:#181818;stroke-width:1.0;stroke-dasharray:7.0,7.0;"/><text fill="#000000" font-family="sans-serif" font-size="13" lengthAdjust="spacing" textLength="55.6563" x="307" y="189.2925">&#171;include&#187;</text><polygon fill="#181818" points="671.8687,186.0986,662.8687,182.0986,666.8687,186.0986,662.8687,190.0986,671.8687,186.0986" style="stroke:#181818;stroke-width:1.0;"/><path d="M556.7376,186.0986 C592.5024,186.0986 629.2181,186.0986 665.8687,186.0986 " fill="none" style="stroke:#181818;stroke-width:1.0;stroke-dasharray:7.0,7.0;"/><text fill="#000000" font-family="sans-serif" font-size="13" lengthAdjust="spacing" textLength="55.6563" x="597" y="182.2925">&#171;include&#187;</text><polygon fill="#181818" points="381.6967,258.1879,372.6125,254.383,376.6978,258.2958,372.7851,262.3812,381.6967,258.1879" style="stroke:#181818;stroke-width:1.0;"/><path d="M286.5571,260.2413 C316.6959,259.5908 344.7402,258.9855 375.6981,258.3174 " fill="none" style="stroke:#181818;stroke-width:1.0;stroke-dasharray:7.0,7.0;"/><text fill="#000000" font-family="sans-serif" font-size="13" lengthAdjust="spacing" textLength="55.6563" x="307" y="254.2925">&#171;include&#187;</text><polygon fill="#181818" points="674.642,256.0986,665.642,252.0986,669.642,256.0986,665.642,260.0986,674.642,256.0986" style="stroke:#181818;stroke-width:1.0;"/><path d="M577.068,256.0986 C608.9491,256.0986 638.0606,256.0986 668.642,256.0986 " fill="none" style="stroke:#181818;stroke-width:1.0;stroke-dasharray:7.0,7.0;"/><text fill="#000000" font-family="sans-serif" font-size="13" lengthAdjust="spacing" textLength="55.6563" x="597" y="252.2925">&#171;include&#187;</text><polygon fill="#181818" points="935.9979,256.0986,926.9979,252.0986,930.9979,256.0986,926.9979,260.0986,935.9979,256.0986" style="stroke:#181818;stroke-width:1.0;"/><path d="M838.2723,256.0986 C869.0968,256.0986 898.4083,256.0986 929.9979,256.0986 " fill="none" style="stroke:#181818;stroke-width:1.0;stroke-dasharray:7.0,7.0;"/><text fill="#000000" font-family="sans-serif" font-size="13" lengthAdjust="spacing" textLength="55.6563" x="861" y="252.2925">&#171;include&#187;</text><polygon fill="#181818" points="977.8992,324.8845,970.5132,318.3694,973.1294,323.3849,968.1139,326.0011,977.8992,324.8845" style="stroke:#181818;stroke-width:1.0;"/><path d="M829.8955,212.1128 C833.8625,214.8361 837.607,217.8239 841,221.0986 C854.7364,234.3559 845.5062,246.5945 859,260.0986 C891.8663,292.9899 935.6759,311.6098 972.1754,323.085 " fill="none" style="stroke:#181818;stroke-width:1.0;"/><polygon fill="#181818" points="699.0613,335.5755,691.9702,328.7406,694.3624,333.8668,689.2362,336.259,699.0613,335.5755" style="stroke:#181818;stroke-width:1.0;"/><path d="M552.0351,282.1114 C597.8683,298.778 650.878,318.0543 693.4226,333.525 " fill="none" style="stroke:#181818;stroke-width:1.0;"/><polygon fill="#181818" points="756.5,282.4506,752.5,291.4506,756.5,287.4506,760.5,291.4506,756.5,282.4506" style="stroke:#181818;stroke-width:1.0;"/><path d="M756.5,317.4268 C756.5,305.768 756.5,300.1093 756.5,288.4506 " fill="none" style="stroke:#181818;stroke-width:1.0;"/><!--SRC=[XPFFQjj04CRl-nHJ7zgJym0X61gRc408JXGt5qEOI1DviRGhTaSrIYdq8Vg4VPAkzeyinPHUxDLylvaTpJVwr1WiQuGAEzqos9eO5OgAtXXOWv7bdg6GXdAMMWbxaAf1WpLWpjfat5K4U2IhQng93UO7B2d8VIwgiYB1ajtpixoHiD66iO8_ltx3rX8iqVsi99OkMmXV6sOUNBTaUGPemobfzyH7RGxmwBecu_LmJC06kveKmngPZjY52k4inD1Il2HsatMMgPx13m7GMihxfcPVMzwxGZ9toN1Rz4SEvRRBbruSmzya7M65Tl-gqHI9wWDZwg4bqxbBBPU6ieUxdVek4LP6lhzNb98yDCxA6b85B0qLaYre1KyolhcZlJYcLrIqEITyfpx3dIuX8skTZqDZ7XgdFJd7IpBWZ53yqffgfnuf-9-IrhqqoT7DVDl4g-2wLSNfBPosRSRmcXIPVfJBFUK7PzbEVMWg2PEvaf5l7JpJwrxhmquvTokDmu23F76jE8tAxV4rLgZoeIkdHb7y5E8BR8oiqLaITaSgjqVe5zuAltKmdoy6koSHR-qa4foOXC8Gt3stAg_QWgo8jU3YOZ5u3PTmTIK3iLY8MFm_I5YAo4JFp-k4UAIyV-UGRp8noODpR50Y6Pqvus8yKgU1Vo3TK3BAjIh-CVwXttwKyGiVTz67qsST_zFKurBy1G00]--></g></svg>